<svg width="165" height="36" xmlns="http://www.w3.org/2000/svg" fill="none">

 <g>
  <title>Layer 1</title>
  <path id="svg_2" stroke-width="5" stroke="#4A6CF7" d="m2.5,2.5l31,0l0,31l-31,0l0,-31z"/>
  <path id="svg_3" fill="#4A6CF7" d="m10,10l16,0l0,16l-16,-16z"/>
  <path id="svg_4" fill="#4A6CF7" d="m15.5,20.5c2.0296,2.0296 0.5922,5.5 -2.2782,5.5c-1.7793,0 -3.2218,-1.4425 -3.2218,-3.2218c0,-2.8704 3.4704,-4.3078 5.5,-2.2782z" opacity="0.5"/>
  <path d="m-6.26069,3.94019c0,0.12821 0.16576,0.16576 0.25641,0.25641c0.18131,0.18131 0.1504,0.36573 0.25641,0.51282c0.16762,0.23256 0.31417,0.31417 0.64103,0.64103c0.32686,0.32686 0.6471,0.76127 1.15385,1.15385c1.94687,1.50824 5.64103,3.84615 7.94872,4.87179c2.30769,1.02564 5.34763,2.1597 8.58974,3.20513c1.77662,0.57288 3.34661,0.9846 5.38461,1.66667c1.80737,0.60488 3.75105,1.2962 5.25641,1.79487c1.58212,0.5241 4.22496,1.30652 5.25641,1.53846c0.63779,0.14342 0.85813,0.18703 1.02564,0.25641c0.11845,0.04906 0.1282,0 0.25641,0c0.12821,0 0.12821,0 0.25641,0c0.12821,0 0.25641,0 0.38461,0c0,0 0.25641,-0.25641 0.38462,-0.38461l0.1282,-0.25641" id="svg_13" fill="none"/>
  <path d="m32.97008,15.60686c0.12821,0 0.16576,0.03755 0.25641,0.1282c0.09066,0.09065 0.70049,0.85758 1.66666,1.53846c0.8449,0.59542 1.91611,1.53056 4.8718,2.05128c0.88383,0.15571 2.44911,0.43305 4.23077,0.76923c2.20018,0.41515 4.6242,0.93995 6.28205,1.15385c1.42159,0.18342 2.05128,0.25641 2.17949,0.25641l0.25641,0" id="svg_14" fill="none"/>
  <path d="m-0.23505,-1.44443c0,0 -0.04906,0.13796 0,0.25641c0.06938,0.16751 0.12821,0.25641 0.12821,0.25641c0,0.12821 0.18703,0.21711 0.25641,0.38462c0.04906,0.11845 0.06234,0.10561 0.12821,0.38462c0.02946,0.12478 0.06234,0.23381 0.12821,0.51282c0.05891,0.24955 0.10767,0.51448 0.12821,0.64103c0.06494,0.40019 0.06929,0.64788 0.12821,0.89744c0.06586,0.27901 0.23682,0.51812 0.38462,1.02564c0.11335,0.38925 0.25066,0.71143 0.38462,1.15385c0.0743,0.24541 0.0185,0.50438 0.12821,0.76923c0.15515,0.37456 0.1467,0.63258 0.25641,0.89744c0.15515,0.37456 0.38462,0.76923 0.38462,0.89744c0,0.25641 0.19055,0.36202 0.25641,0.64103c0.02946,0.12478 0.06234,0.23381 0.12821,0.51282c0.02946,0.12478 0.12821,0.25641 0.12821,0.51282c0,0.25641 0.18703,0.47352 0.25641,0.64103c0.04906,0.11845 0,0.25641 0,0.38461c0,0.12821 -0.04906,0.26617 0,0.38462c0.06938,0.16751 0.25641,0.25641 0.25641,0.38461c0,0 0.12821,0.25641 0.12821,0.25641c0,0.12821 0.12821,0.25641 0.12821,0.25641c0,0.12821 0.03755,0.16576 0.12821,0.25641c0.09065,0.09065 0.12821,0.25641 0.12821,0.25641c0.12821,0.1282 0.16576,0.16576 0.25641,0.25641c0.18131,0.18131 0,0.25641 0.1282,0.38462c0.12821,0.12821 0.25641,0.25641 0.38462,0.38461c0.25641,0.25641 0.51282,0.51282 0.76923,0.76923c0.25641,0.25641 0.53667,0.3452 0.76923,0.51282c0.29417,0.21203 0.47506,0.5572 0.76923,0.76923c0.23256,0.16762 0.63258,0.53132 0.89744,0.64103c0.37456,0.15515 0.64949,0.49714 0.89744,0.64103c0.3998,0.23202 0.76923,0.51282 1.02564,0.64102c0.25641,0.12821 0.93718,0.29968 1.28205,0.51282c0.15423,0.09532 0.38461,0.25641 0.51282,0.38461c0,0 0.16576,0.16576 0.25641,0.25641c0.18131,0.18131 0.51282,0.25641 0.76923,0.38461c0.25641,0.12821 0.55827,0.44692 0.76923,0.64103c0.50806,0.46748 0.71718,0.57859 1.02564,0.76923c0.34487,0.21314 0.61701,0.28292 0.89744,0.51282c0.35748,0.29306 0.82191,0.60159 1.41026,1.02564c0.46513,0.33525 1.0972,0.7076 1.53846,1.02564c0.46513,0.33525 0.88225,0.53722 1.28205,0.76923c0.24795,0.14389 0.73147,0.5572 1.02564,0.76923c0.23256,0.16762 0.41175,0.21976 0.76923,0.51282c0.28043,0.22989 0.41175,0.47617 0.76923,0.76923c0.28043,0.2299 0.40846,0.4734 0.64103,0.64103c0.14709,0.10601 0.34686,0.55721 0.64103,0.76923c0.23256,0.16762 0.57058,0.57057 0.89744,0.89743c0.32686,0.32686 0.94513,0.6904 1.41026,1.02564c0.44126,0.31804 0.77929,0.74229 1.15384,0.89744c0.26485,0.1097 0.53667,0.3452 0.76923,0.51282c0.29417,0.21203 0.92128,0.60161 1.15385,0.76923c0.29417,0.21203 0.53234,0.28649 0.76923,0.38461c0.16751,0.06938 0.25641,0.25641 0.51282,0.25641c0,0 0.10933,0.02219 0.25641,0.1282c0.23256,0.16762 0.26327,0.0693 0.51282,0.12821c0.27901,0.06586 0.51282,0.1282 0.76923,0.25641c0.25641,0.1282 0.38461,0.25641 0.51282,0.25641c0,0 0.16576,-0.09065 0.25641,0c0.09066,0.09066 0.1282,0.12821 0.25641,0.12821l0,0" id="svg_15" fill="none"/>
  <polyline stroke-linecap="round" id="svg_16" points="28.867518325321505,42.401728937402254 28.867518325321505,42.52993406735996 " fill="none"/>
  <path stroke="null" d="m0.14957,0.09404c0,0.11883 0,0.23767 0,0.23767c0,0.11883 0,0.23767 0,0.23767c0,0.11883 0.0547,0.20124 0.11923,0.3565c0.04563,0.10979 0.13156,0.1077 0.23846,0.23767c0.27255,0.33135 0.32478,0.62064 0.71538,1.06951c0.22096,0.25392 0.53894,0.52402 0.95385,0.95068c0.53134,0.54639 1.07308,0.83184 1.55,1.30718c0.47692,0.47534 1.18116,0.96777 1.90769,1.42602c0.58748,0.37054 1.17451,0.8568 1.66923,1.18835c0.57693,0.38664 0.78086,0.70768 1.19231,0.83184c0.22823,0.06887 0.34357,0.14145 0.71538,0.3565c0.23059,0.13337 0.62139,0.32253 0.95385,0.59417c0.2608,0.21309 0.73438,0.42907 1.07308,0.59417c0.38618,0.18825 0.54115,0.42857 0.83462,0.59417c0.42779,0.24141 0.73756,0.31997 0.95385,0.47534c0.27358,0.19653 0.34013,0.25824 0.47692,0.3565c0.21628,0.15537 0.35769,0.23767 0.47692,0.3565c0.23846,0.23767 0.4418,0.51648 0.71538,0.71301c0.21628,0.15537 0.35769,0.23767 0.59615,0.47534c0.11923,0.11883 0.2209,0.25824 0.35769,0.3565c0.21628,0.15537 0.23846,0.11883 0.47692,0.3565c0.11923,0.11883 0.23846,0.23767 0.35769,0.3565c0.23846,0.23767 0.35769,0.47534 0.47692,0.59417c0.35769,0.3565 0.59615,0.71301 0.95385,1.06951c0.23846,0.23767 0.27387,0.42945 0.59615,0.71301c0.19987,0.17586 0.34912,0.42912 0.59615,0.71301c0.17468,0.20074 0.47158,0.30293 0.59615,0.71301c0.03455,0.11374 0.11923,0.3565 0.23846,0.47534c0.11923,0.11884 0.23846,0.11884 0.35769,0.23767c0.11923,0.11883 -0.00614,0.15433 0.11923,0.3565c0.14016,0.22604 0.2018,0.25977 0.35769,0.47534c0.09859,0.13633 0.23846,0.23767 0.35769,0.47534c0.11923,0.23767 0.19283,0.36555 0.23846,0.47534c0.12906,0.31053 0.35769,0.47534 0.47692,0.59417c0.11923,0.11884 0.23846,0.11884 0.23846,0.11884c0.11923,0.23767 0.23846,0.23767 0.23846,0.3565c0,0.11883 0.12831,0.19219 0.23846,0.23767c0.15578,0.06431 0.23846,0.23767 0.23846,0.23767c0.11923,0.11883 0.19283,0.24671 0.23846,0.3565c0.06453,0.15526 0.20191,0.29219 0.35769,0.3565c0.11016,0.04548 0.21753,0.01163 0.35769,0.23767c0.06268,0.10109 0.10941,0.04597 0.23846,0.3565c0.04563,0.10979 0.1283,0.19219 0.23846,0.23767c0.15578,0.06431 0.13704,0.1752 0.23846,0.23767c0.22679,0.1397 0.23846,0.23767 0.23846,0.47534c0,0 0.11923,0.23767 0.23846,0.23767c0,0 0.17393,0.08241 0.23846,0.23767c0.04563,0.10979 0.00908,0.19219 0.11923,0.23767c0.15578,0.06431 0.35769,0.3565 0.35769,0.47534c0,0 0.23846,0.23767 0.23846,0.23767c0,0.11884 0.03492,0.15364 0.11923,0.23767c0.08431,0.08403 0.03492,0.15364 0.11923,0.23767c0.16862,0.16806 0.33676,0.01163 0.47692,0.23767c0.06268,0.10109 0.17393,0.20124 0.23846,0.3565c0.04563,0.10979 0.21426,0.14931 0.35769,0.23767c0.32073,0.19756 0.4991,0.20113 0.71538,0.3565c0.13679,0.09826 0.32114,0.29219 0.47692,0.3565c0.11016,0.04547 0.12831,0.07336 0.23846,0.11884c0.15578,0.06431 0.23846,0.23767 0.35769,0.23767c0,0 0.23846,0.11884 0.23846,0.11884c0.11923,0.11883 0.17578,0.13658 0.23846,0.23767c0.14016,0.22604 0.24754,0.19219 0.35769,0.23767c0.15578,0.06431 0.13704,0.05636 0.23846,0.11883c0.22679,0.1397 0.1283,0.19219 0.23846,0.23767c0.15578,0.06431 0.11923,0.11883 0.23846,0.23767c0,0 -0.04939,0.06961 0.11923,0.23767c0.08431,0.08403 0.23846,0 0.23846,0c0.11923,0.11884 0.11923,0.23767 0.11923,0.23767c0.11923,0.23767 0.23846,0.23767 0.35769,0.23767c0,0 0,0.11884 0.11923,0.23767c0,0 0.11923,0.11883 0.23846,0.23767c0.11923,0.11884 0.21753,0.01163 0.35769,0.23767c0.06268,0.10109 0.09911,0.26388 0.71538,0.71301c0.69404,0.50581 0.83462,0.47534 0.95385,0.47534c0,0 0.03492,-0.08403 0.11923,0c0.08431,0.08403 0.03492,0.15364 0.11923,0.23767c0.08431,0.08403 0.17393,0.08241 0.23846,0.23767c0.04563,0.10979 0,0.23767 0.11923,0.35651c0.11923,0.11883 0.0736,0.12788 0.11923,0.23767c0.06453,0.15526 0.23846,0.11883 0.35769,0.35651c0,0 0,0.11883 0.11923,0.23767c0,0 0.03492,0.15364 0.11923,0.23767c0.08431,0.08403 0.11923,0.11883 0.11923,0.23767c0,0 0.03492,0.15364 0.11923,0.23767c0.08431,0.08403 0.03492,0.15364 0.11923,0.23767c0.08431,0.08403 0.23846,0 0.23846,0.23767c0,0 0.11923,0.11883 0.11923,0.23767c0,0 0,0.11883 0,0.23767c0,0 0,0.11883 0,0.23767c0,0 0,0.23767 0,0.23767c0,0.11883 0,0.23767 0,0.23767c0,0.11884 0,0.23767 0,0.23767c0,0.11883 0,0.23767 0.11923,0.23767l0,0.11883" id="svg_17" fill="none"/>
 </g>
</svg>